<svg width="449" height="490" viewBox="0 0 449 490" fill="none" xmlns="http://www.w3.org/2000/svg">
<path d="M225.252 0.0119685C226.364 0.0218781 227.477 0.0317878 228.623 0.0419978C241.268 0.312745 253.704 2.07614 266.186 4.00367C269.036 4.44059 271.887 4.8472 274.744 5.23462C292.205 7.6728 310.408 11.1313 326.502 18.512C327.586 18.9889 328.67 19.4659 329.787 19.9573C339.279 24.3876 347.537 30.1977 355.936 36.408C357.521 37.584 357.521 37.584 359.502 38.512C359.502 39.172 359.502 39.832 359.502 40.512C360.37 40.9354 360.37 40.9354 361.256 41.3674C363.374 42.447 365.408 43.5895 367.439 44.8245C368.088 45.2125 368.736 45.6005 369.404 46.0002C371.502 47.512 371.502 47.512 373.799 49.8557C377.451 53.4446 381.544 56.1594 385.769 59.0256C387.38 60.1418 388.945 61.3219 390.502 62.512C390.502 63.172 390.502 63.832 390.502 64.512C391.065 64.7737 391.628 65.0353 392.209 65.3049C400.848 69.8525 408.581 76.8365 416.291 82.7957C420.132 85.7514 424.001 88.5533 428.064 91.1995C437.351 97.607 443.321 106.921 445.369 117.914C447.613 131.073 448.737 144.173 448.852 157.519C448.868 158.935 448.896 160.35 448.934 161.765C449.161 170.325 449.193 177.632 443.502 184.512C440.67 187.332 440.67 187.332 437.689 189.637C436.626 190.484 435.564 191.332 434.502 192.18C433.512 192.95 432.522 193.719 431.502 194.512C422.936 201.182 417.31 209.298 413.502 219.512C412.935 221.02 412.935 221.02 412.357 222.559C404.321 244.409 398.434 267.976 398.299 291.375C398.292 292.196 398.285 293.017 398.277 293.863C398.26 296.517 398.254 299.171 398.252 301.824C398.251 302.74 398.25 303.655 398.25 304.599C398.268 320.441 399.317 335.809 401.502 351.512C401.93 354.683 402.354 357.856 402.779 361.028C403.437 365.929 404.099 370.83 404.788 375.728C408.749 404.008 408.805 427.04 397.502 453.512C396.842 453.512 396.182 453.512 395.502 453.512C395.428 454.053 395.355 454.595 395.279 455.153C394.193 458.45 392.269 460.595 390.064 463.262C389.261 464.247 388.458 465.232 387.631 466.246C386.928 466.994 386.226 467.742 385.502 468.512C384.842 468.512 384.182 468.512 383.502 468.512C383.502 469.172 383.502 469.832 383.502 470.512C382.842 470.512 382.182 470.512 381.502 470.512C381.502 471.172 381.502 471.832 381.502 472.512C379.417 474.378 377.333 476.112 375.127 477.824C374.492 478.32 373.857 478.815 373.203 479.326C363.055 487.079 353.451 491.228 340.502 489.512C335.542 487.616 331.091 485.191 326.502 482.512C325.697 482.065 324.893 481.617 324.064 481.156C322.53 480.299 321.012 479.411 319.502 478.512C319.502 477.852 319.502 477.192 319.502 476.512C318.947 476.258 318.393 476.004 317.822 475.742C315.139 474.32 312.816 472.634 310.377 470.824C308.919 469.755 308.919 469.755 307.431 468.664C305.981 467.599 305.981 467.599 304.502 466.512C298.586 462.179 292.635 458.333 286.142 454.914C283.777 453.658 281.491 452.317 279.189 450.949C247.119 433.113 203.017 430.355 167.502 436.512C166.661 436.657 165.82 436.803 164.954 436.952C140.36 441.398 117.362 450.241 94.5127 460.107C55.6721 476.799 55.6721 476.799 36.5018 470.512C20.8894 463.894 9.4 448.177 3.06425 433.012C-3.19994 416.607 1.04168 397.992 7.70097 382.434C10.2727 376.689 13.2718 371.168 16.2752 365.641C18.2919 361.929 20.1937 358.175 22.0643 354.387C24.5136 349.437 27.0668 344.559 29.6893 339.699C34.2324 331.242 37.8306 322.713 41.2244 313.739C42.3382 310.925 43.5592 308.233 44.8768 305.512C58.0054 277.142 62.383 245.293 65.5017 214.512C65.6358 213.267 65.7699 212.021 65.908 210.739C67.5345 192.801 67.091 174.719 64.5823 156.909C61.3924 133.824 65.1402 113.099 76.0721 92.3284C77.7036 89.1144 79.0891 85.8275 80.5017 82.512C94.8994 51.8212 94.8994 51.8212 110.502 44.512C113.3 43.6353 116.124 43.0628 119.002 42.512C120.604 42.1783 122.205 41.8423 123.806 41.5042C124.599 41.3388 125.391 41.1735 126.208 41.0032C151.461 35.5957 175.302 24.9278 196.088 9.60572C196.926 8.99728 197.763 8.38884 198.627 7.76197C199.682 6.96533 199.682 6.96533 200.76 6.15259C208.804 1.33984 215.936 -0.15189 225.252 0.0119685Z" fill="#F5F5F5"/>
</svg>
