<svg width="529" height="565" viewBox="0 0 529 565" fill="none" xmlns="http://www.w3.org/2000/svg">
<path d="M281.518 4.12434C281.518 4.78434 281.518 5.44434 281.518 6.12434C282.199 6.30997 282.879 6.49559 283.58 6.68684C291.769 10.6942 295.659 18.2269 299.518 26.1243C300.016 27.1221 300.513 28.1198 301.026 29.1478C304.576 36.5055 307.709 43.998 310.782 51.5667C316.026 64.4728 321.544 77.0359 328.518 89.1243C329.108 90.1491 329.699 91.174 330.307 92.2298C337.346 103.788 346.271 114.288 355.518 124.124C356.092 124.762 356.665 125.401 357.256 126.058C370.625 140.316 388.045 150.323 405.143 159.374C406.097 159.882 407.051 160.39 408.034 160.914C413.603 163.813 419.159 166.215 425.089 168.275C427.979 169.285 430.775 170.464 433.58 171.687C438.034 173.572 442.457 175.066 447.104 176.386C450.42 177.4 453.581 178.716 456.784 180.038C459.832 181.249 462.916 182.309 466.018 183.374C474.74 186.468 483.144 190.193 491.518 194.124C492.71 194.68 493.903 195.236 495.131 195.808C508.626 202.547 519.742 213.031 525.518 227.124C530.678 243.097 529.306 256.902 521.83 271.749C518.476 277.61 514.216 282.312 509.518 287.124C508.34 288.377 508.34 288.377 507.139 289.656C497.721 299.451 486.648 306.863 475.268 314.187C472.988 315.665 470.71 317.147 468.432 318.628C467.859 319 467.286 319.373 466.695 319.756C413.555 353.375 413.555 353.375 383.08 406.687C380.103 424.022 385.003 438.032 392.754 453.3C395.796 459.578 397.963 465.091 396.518 472.124C394.229 475.706 391.027 477.771 387.518 480.124C386.88 480.581 386.242 481.037 385.584 481.507C377.435 486.196 365.148 485.54 356.287 483.312C353.255 482.08 350.417 480.644 347.518 479.124C345.987 478.397 344.453 477.678 342.916 476.964C336.345 473.909 329.8 470.827 323.393 467.437C319.095 465.273 314.66 463.58 310.143 461.937C309.135 461.561 309.135 461.561 308.107 461.178C284.318 452.802 256.987 455.377 234.518 466.124C219.75 473.268 208.197 483.844 196.518 495.124C195.574 496.027 194.631 496.929 193.659 497.859C188.689 502.705 184.203 507.782 179.87 513.202C177.286 516.413 174.629 519.552 171.955 522.687C168.699 526.511 165.503 530.367 162.393 534.312C158.967 538.64 155.331 542.736 151.596 546.8C149.48 549.111 149.48 549.111 147.561 551.656C145.422 554.24 143.202 556.224 140.58 558.312C139.746 558.986 138.912 559.66 138.053 560.355C133.77 563.344 130.414 564.388 125.205 564.249C124.322 564.231 123.439 564.213 122.53 564.195C121.534 564.16 121.534 564.16 120.518 564.124C120.518 563.464 120.518 562.804 120.518 562.124C119.775 561.897 119.033 561.671 118.268 561.437C113.775 559.293 112.083 556.174 109.768 551.874C102.173 529.173 115.735 499.562 122.381 478.093C128.318 458.907 132.512 439.995 135.518 420.124C135.625 419.438 135.731 418.751 135.841 418.044C139.921 389.311 134.54 356.981 117.366 333.136C115.466 330.749 113.514 328.431 111.518 326.124C110.882 325.293 110.247 324.461 109.592 323.605C107.442 321.033 105.226 319.112 102.58 317.062C101.746 316.411 100.912 315.76 100.053 315.089C99.2165 314.441 98.3799 313.792 97.518 313.124C96.644 312.411 95.77 311.699 94.8695 310.964C92.2159 308.888 89.545 307.609 86.518 306.124C84.972 305.173 83.4308 304.214 81.893 303.249C77.3069 300.466 72.64 298.394 67.6625 296.413C64.3452 295.054 61.1284 293.543 57.893 291.999C53.1896 289.794 48.5916 288.146 43.5922 286.769C40.9446 285.946 38.8367 284.628 36.518 283.124C34.8945 282.41 33.2696 281.698 31.6312 281.019C27.2179 279.151 22.8756 277.118 18.518 275.124C18.518 274.464 18.518 273.804 18.518 273.124C17.4351 272.784 17.4351 272.784 16.3305 272.437C12.9093 270.84 11.054 268.914 8.51795 266.124C7.6517 265.196 6.78545 264.268 5.89295 263.312C-0.435617 254.818 -0.571499 245.348 0.517952 235.124C3.32015 222.53 10.8265 212.73 21.4555 205.687C33.1436 198.605 45.327 193.312 58.018 188.312C82.9622 178.478 107.406 167.949 128.518 151.124C129.232 150.601 129.946 150.078 130.682 149.538C145.888 138.319 160.663 123.882 170.432 107.601C170.79 107.114 171.149 106.626 171.518 106.124C172.178 106.124 172.838 106.124 173.518 106.124C173.92 104.732 173.92 104.732 174.33 103.312C175.465 100.267 176.215 99.2272 178.518 97.1243C178.848 96.1343 179.178 95.1443 179.518 94.1243C180.178 94.1243 180.838 94.1243 181.518 94.1243C181.786 93.4437 182.054 92.7631 182.33 92.0618C183.678 88.7272 185.093 85.4269 186.518 82.1243C187.178 82.1243 187.838 82.1243 188.518 82.1243C189.508 79.1543 190.498 76.1843 191.518 73.1243C192.178 73.1243 192.838 73.1243 193.518 73.1243C193.75 72.1588 193.982 71.1933 194.221 70.1986C195.585 65.4358 197.905 61.2686 200.268 56.9368C201.17 55.2551 202.071 53.5728 202.971 51.89C203.626 50.6708 203.626 50.6708 204.293 49.4271C206.802 44.7099 209.157 39.9171 211.518 35.1243C212.184 33.7906 212.85 32.4571 213.518 31.1243C214.178 31.1243 214.838 31.1243 215.518 31.1243C215.746 30.2671 215.974 29.4099 216.209 28.5267C217.7 24.651 219.783 21.7997 222.455 18.6868C223.185 17.8342 223.185 17.8342 223.93 16.9644C228.483 11.8425 233.423 8.27527 239.518 5.12434C240.236 4.69379 240.954 4.26325 241.694 3.81965C252.059 -1.51963 271.036 -1.11655 281.518 4.12434Z" fill="#F5F5F5"/>
</svg>
