<svg width="560" height="607" viewBox="0 0 560 607" fill="none" xmlns="http://www.w3.org/2000/svg">
<path d="M443.277 0.0372459C444.764 5.43639 443.507 8.96008 441.215 13.8497C440.927 14.5104 440.639 15.171 440.342 15.8517C438.674 19.5409 436.764 22.9067 434.485 26.2528C431.492 30.6943 428.642 35.2115 425.809 39.756C418.464 51.4568 410.685 62.8562 402.914 74.276C384.486 101.377 366.412 128.911 353.277 159.037C352.964 159.752 352.65 160.467 352.327 161.203C349.18 168.611 347.847 175.552 347.715 183.537C347.7 184.28 347.685 185.022 347.669 185.787C347.775 191.235 349.182 194.548 352.277 199.037C352.937 199.367 353.597 199.697 354.277 200.037C354.277 200.697 354.277 201.357 354.277 202.037C391.926 214.224 438.026 193.906 473.676 182.408C474.32 182.201 474.964 181.993 475.627 181.779C482.199 179.659 488.77 177.535 495.336 175.396C542.788 159.942 542.787 159.942 555.277 161.037C557.777 162.537 557.777 162.537 559.277 164.037C559.13 168.901 556.661 171.021 553.367 174.211C549.874 177.264 546.055 179.647 542.09 182.037C541.184 182.59 540.278 183.143 539.345 183.712C527.264 190.981 514.756 197.485 502.277 204.037C449.405 227.552 449.405 227.552 411.277 267.037C410.546 272.251 410.591 276.521 412.777 281.35C424.754 294.225 443.094 298.482 459.465 303.162C494.181 313.168 494.181 313.168 500.277 320.037C501.715 323.475 501.715 323.475 501.277 327.037C497.725 333.32 491.328 335.737 484.766 337.858C472.431 341.274 459.635 343.116 447.039 345.287C408.11 351.221 408.11 351.221 377.152 373.662C370.033 386.477 371.488 400.368 375.277 414.037C377.122 419.917 379.249 425.697 381.359 431.485C382.85 435.628 384.257 439.799 385.652 443.975C385.903 444.714 386.153 445.453 386.411 446.214C388.996 453.948 391.108 462.092 387.965 469.975C386.277 473.037 386.277 473.037 383.277 475.037C376.859 476.126 371.648 474.611 366.277 471.037C362.449 468.243 358.714 465.346 355 462.401C334.683 445.464 334.683 445.464 309.277 442.037C300.465 444.416 294.419 450.022 289.715 457.662C289.327 458.283 288.939 458.905 288.54 459.545C273.978 483.289 267.945 512.785 262.027 539.701C259.884 549.413 257.57 558.931 254.449 568.377C253.312 571.927 252.385 575.488 251.465 579.1C249.956 584.425 247.947 589.208 245.402 594.1C245.087 594.719 244.771 595.339 244.446 595.977C241.997 600.462 239.364 603.104 235.277 606.037C232.215 606.662 232.215 606.662 229.277 606.037C222.208 600.651 219.74 592.224 217.773 583.904C217.564 583.041 217.354 582.179 217.138 581.289C214.998 572.252 213.39 563.129 211.824 553.978C206.72 515.329 206.72 515.329 187.215 483.1C181.364 478.992 176.346 478.091 169.277 479.037C156.379 482.936 145.165 490.89 134.415 498.774C127.45 503.826 121.157 508.347 112.277 507.037C109.586 504.861 107.822 503.127 106.277 500.037C105.162 488.717 107.01 480.318 111.452 470.013C112.821 466.736 113.981 463.389 115.152 460.037C115.562 458.882 115.972 457.727 116.394 456.537C116.686 455.712 116.977 454.887 117.277 454.037C117.937 454.037 118.597 454.037 119.277 454.037C119.403 453.303 119.529 452.569 119.659 451.813C120.245 449.183 121.033 447.065 122.168 444.631C122.545 443.811 122.923 442.992 123.311 442.147C123.713 441.286 124.114 440.425 124.527 439.537C128.067 431.798 131.421 424.059 134.277 416.037C134.494 415.43 134.71 414.824 134.933 414.198C140.449 398.599 145.583 380.358 138.527 364.361C133.031 354.141 125.827 349.266 114.777 345.787C95.1126 340.871 74.7093 341.665 54.5827 341.522C50.2766 341.49 45.9708 341.451 41.6648 341.401C39.6788 341.382 37.6925 341.373 35.7064 341.365C24.1186 341.238 12.3429 340.345 3.2773 332.412C0.383327 328.976 -0.0862271 326.772 0.0116744 322.244C1.16271 312.68 9.3028 306.26 16.332 300.561C19.6079 298 22.9366 295.512 26.2773 293.037C42.5687 281.437 42.5687 281.437 56.4648 267.225C57.362 266.142 57.362 266.142 58.2773 265.037C58.9373 265.037 59.5973 265.037 60.2773 265.037C60.7066 263.945 60.7066 263.945 61.1445 262.83C61.8425 261.109 62.5708 259.4 63.3476 257.713C67.4816 248.45 67.2407 240.906 63.8164 231.397C60.1473 223.388 55.0871 216.034 50.0312 208.842C47.5996 204.953 46.7714 201.607 47.2773 197.037C48.9321 193.91 51.0722 191.64 54.2773 190.037C67.9511 188.919 79.9398 192.389 92.8647 196.364C115.127 203.373 115.127 203.373 137.277 199.037C141.881 194.675 143.028 189.525 143.648 183.338C144.179 151.495 127.75 120.193 115.498 91.5304C100.164 55.476 100.164 55.476 100.09 42.4122C100.076 41.265 100.061 40.1177 100.047 38.9357C100.277 36.0372 100.277 36.0372 102.277 34.0372C106.583 33.197 109.132 34.2872 112.715 36.5372C117.333 39.8533 120.694 43.6624 124.277 48.0372C126.389 50.5067 128.521 52.959 130.652 55.4122C131.5 56.3916 131.5 56.3916 132.365 57.3908C136.29 61.9213 140.268 66.3988 144.297 70.838C146.174 72.9224 148.01 75.0364 149.84 77.1622C156.915 85.2231 164.442 91.9106 173.277 98.0372C173.955 98.5181 174.633 98.9989 175.332 99.4943C181.391 103.174 188.434 103.064 195.277 102.037C205.142 97.9852 210.767 88.845 215.402 79.7247C215.84 78.8773 216.279 78.03 216.73 77.1569C219.154 72.4154 221.366 67.6793 223.234 62.6896C233.332 37.0098 233.332 37.0098 241.277 33.0372C246.099 32.5551 248.291 32.4685 252.527 34.9122C262.607 44.746 262.482 64.3483 264.215 77.4122C266.685 97.391 266.685 97.391 273.41 116.24C274.277 118.037 274.277 118.037 275.277 121.475C276.025 124.122 276.025 124.122 278.09 125.225C278.812 125.493 279.534 125.761 280.277 126.037C281.033 126.539 281.788 127.04 282.566 127.557C288.084 130.57 294.437 129.852 300.34 128.158C312.873 123.214 322.763 115.24 332.724 106.412C334.746 104.622 336.795 102.863 338.84 101.1C343.12 97.3272 347.035 93.3429 350.777 89.0372C358.328 80.3536 358.328 80.3536 362.277 79.0372C362.964 77.7139 363.625 76.3777 364.277 75.0372C365.838 72.8956 367.487 71.0068 369.277 69.0372C369.937 69.0372 370.597 69.0372 371.277 69.0372C371.277 68.3772 371.277 67.7172 371.277 67.0372C372.906 65.3099 374.558 63.6705 376.277 62.0372C380.701 57.8198 384.529 53.5747 388.016 48.5412C388.64 47.7967 388.64 47.7967 389.277 47.0372C389.937 47.0372 390.597 47.0372 391.277 47.0372C391.5 46.4958 391.723 45.9544 391.953 45.3966C393.698 42.2877 396.03 39.8581 398.465 37.2872C399.458 36.2256 400.45 35.1631 401.441 34.0997C401.925 33.5815 402.409 33.0633 402.907 32.5294C405.337 29.8827 407.641 27.128 409.937 24.3654C411.277 23.0372 411.277 23.0372 413.277 23.0372C413.62 22.2097 413.62 22.2097 413.969 21.3654C419.068 12.2926 432.606 -0.788387 443.277 0.0372459Z" fill="#F5F5F5"/>
</svg>
