<svg width="607" height="413" viewBox="0 0 607 413" fill="none" xmlns="http://www.w3.org/2000/svg">
<path d="M286.558 1.67651C289.842 2.78751 293.04 4.0233 296.238 5.36011C301.301 7.39895 306.414 8.84656 311.683 10.239C318.341 12.0969 324.905 14.0622 331.308 16.6765C333.095 17.3958 333.095 17.3958 334.918 18.1296C344.572 23.4381 349.204 32.8673 352.908 42.7759C354.124 46.0168 355.418 49.2261 356.707 52.4382C357.195 53.6569 357.683 54.8755 358.186 56.1311C368.551 81.0244 389.979 103.552 411.258 119.653C413.856 121.656 416.357 123.757 418.871 125.864C424.499 130.492 430.447 134.472 436.558 138.427C438.164 139.508 439.768 140.591 441.371 141.677C444.417 143.707 447.504 145.599 450.707 147.376C452.88 148.609 454.995 149.926 457.121 151.239C462.13 154.255 467.3 156.844 472.547 159.419C478.153 162.193 483.657 165.169 489.162 168.138C490.321 168.757 490.321 168.757 491.504 169.387C492.19 169.757 492.876 170.126 493.582 170.506C495.562 171.428 497.428 171.972 499.558 172.427C499.558 173.087 499.558 173.747 499.558 174.427C500.389 174.514 501.219 174.602 502.074 174.692C506.256 175.574 509.548 177.203 513.308 179.177C514.01 179.536 514.712 179.895 515.434 180.265C517.479 181.312 519.519 182.368 521.558 183.427C523.473 184.41 525.389 185.39 527.308 186.364C528.046 186.744 528.783 187.125 529.543 187.516C531.536 188.416 533.425 188.97 535.558 189.427C535.558 190.087 535.558 190.747 535.558 191.427C538.198 192.087 540.839 192.747 543.558 193.427C543.558 194.087 543.558 194.747 543.558 195.427C544.59 195.695 545.621 195.963 546.683 196.239C550.207 197.236 553.327 198.693 556.558 200.427C556.558 201.087 556.558 201.747 556.558 202.427C557.288 202.693 558.018 202.96 558.769 203.235C561.522 204.411 563.736 205.777 566.183 207.489C568.73 209.266 570.59 210.437 573.558 211.427C573.558 212.087 573.558 212.747 573.558 213.427C574.11 213.664 574.662 213.901 575.23 214.145C578.126 215.739 580.354 217.716 582.808 219.927C583.701 220.721 584.593 221.515 585.512 222.333C587.558 224.427 587.558 224.427 587.558 226.427C588.548 226.757 589.538 227.087 590.558 227.427C592.146 229.483 593.552 231.488 594.933 233.677C595.331 234.303 595.729 234.929 596.139 235.574C604.97 249.905 609.201 266.376 605.449 283.044C603.768 287.542 600.752 290.91 597.558 294.427C596.816 295.293 596.073 296.159 595.308 297.052C588.423 302.998 581.039 306.85 572.648 310.192C571.782 310.538 570.916 310.883 570.023 311.239C558.444 315.757 546.527 319.218 534.627 322.778C503.854 332.02 476.449 344.079 451.17 364.149C450.104 364.994 449.035 365.834 447.963 366.669C439.795 373.043 433.383 380.021 427.164 388.278C419.061 397.825 400.846 399.392 389.246 401.927C385.915 402.659 382.585 403.398 379.258 404.145C378.446 404.327 377.633 404.508 376.797 404.695C370.563 406.12 364.448 407.841 358.37 409.828C340.008 415.61 319.502 409.002 301.558 404.427C296.993 403.264 292.427 402.102 287.86 400.947C286.499 400.602 285.138 400.255 283.778 399.906C275.67 397.829 267.576 395.978 259.337 394.503C255.187 393.754 251.1 392.868 247.004 391.868C239.872 390.184 232.703 389.243 225.433 388.364C224.192 388.204 222.951 388.043 221.672 387.878C196.972 384.824 172.079 383.898 147.232 382.838C129.635 382.087 112.09 381.178 94.5585 379.427C93.8597 379.358 93.1609 379.289 92.4409 379.218C83.5528 378.327 74.953 376.514 66.246 374.552C65.1479 374.307 64.0499 374.062 62.9186 373.81C42.2114 368.986 22.7035 358.748 11.0585 340.364C10.1877 338.738 9.3543 337.091 8.55846 335.427C8.11115 334.516 7.66385 333.606 7.20299 332.669C-2.71657 310.852 -1.64047 285.479 5.87096 263.114C11.3706 248.645 20.3395 231.272 31.5585 220.427C36.2983 215.22 40.7147 209.777 45.0546 204.235C47.6604 201.312 50.4418 198.866 53.4108 196.325C57.878 192.376 61.9645 188.02 66.1151 183.743C70.3541 179.438 74.7195 175.639 79.5428 172.002C82.0955 170.007 84.3051 167.75 86.5585 165.427C88.1847 164.049 89.8314 162.695 91.496 161.364C95.9388 157.771 100.297 154.098 104.621 150.364C109.384 146.258 114.203 142.25 119.137 138.348C123.655 134.763 128.099 131.085 132.558 127.427C134.392 125.926 136.225 124.426 138.058 122.927C138.969 122.181 139.879 121.436 140.816 120.669C142.622 119.192 144.429 117.718 146.238 116.247C150.216 113.007 154.182 109.762 158.07 106.415C158.956 105.655 158.956 105.655 159.86 104.879C161.017 103.884 162.17 102.884 163.32 101.88C167.337 98.4265 167.337 98.4265 169.558 98.4265C169.558 97.7665 169.558 97.1065 169.558 96.4265C171.133 95.0945 171.133 95.0945 173.246 93.614C176.686 91.1163 179.582 88.4739 182.558 85.4265C184.879 83.2978 187.223 81.1972 189.57 79.0984C190.02 78.6948 190.471 78.2912 190.935 77.8754C192.15 76.7909 193.371 75.7123 194.594 74.6368C201.721 68.3168 208.456 61.6588 215.172 54.9109C216.356 53.7248 217.54 52.539 218.725 51.3533C221.814 48.2603 224.9 45.1643 227.986 42.0676C231.126 38.9172 234.269 35.7696 237.412 32.6218C242.935 27.0892 248.456 21.5542 253.974 16.0173C254.827 15.1623 255.68 14.3074 256.558 13.4265C257.449 12.5314 258.34 11.6364 259.258 10.7142C261.363 8.6209 263.512 6.62983 265.746 4.67651C266.42 4.08354 267.094 3.49057 267.789 2.87964C273.017 -1.41355 280.44 -0.104703 286.558 1.67651Z" fill="#F5F5F5"/>
</svg>
