<svg width="548" height="493" viewBox="0 0 548 493" fill="none" xmlns="http://www.w3.org/2000/svg">
<path d="M501.625 3.81819C504.523 6.1549 504.523 6.1549 504.906 8.32209C505.433 17.1627 502.251 23.7097 498.486 31.4666C497.145 34.2467 495.888 37.0641 494.625 39.8807C493.939 41.3812 493.252 42.8815 492.562 44.3807C491.902 44.3807 491.242 44.3807 490.562 44.3807C490.354 45.1644 490.145 45.9482 489.93 46.7557C488.078 51.6651 485.411 55.9094 482.688 60.3807C462.965 90.2639 462.965 90.2639 456.562 124.381C457.852 129.002 459.516 131.668 463.5 134.381C479.168 139.417 498.851 131.907 513.938 127.693C533.631 122.24 533.631 122.24 540.562 123.381C542.906 125.224 542.906 125.224 544.562 127.381C544.839 133.317 541.144 137.957 537.562 142.381C527.124 153.517 513.364 161.954 500.691 170.291C486.523 179.754 473.066 189.781 460.562 201.381C459.85 202.016 459.137 202.652 458.402 203.306C451.874 209.382 445.089 218.074 444.324 227.236C444.164 234.447 444.693 239.295 448.562 245.381C448.999 246.415 448.999 246.415 449.445 247.471C450.837 249.85 452.075 250.286 454.562 251.381C455.662 252.235 456.744 253.112 457.812 254.006C473.942 266.147 495.51 272.833 514.632 278.447C519.489 279.995 524.007 282.109 528.562 284.381C529.684 284.93 530.805 285.479 531.961 286.045C543.404 291.882 543.404 291.882 546.562 297.381C547.25 300.443 547.25 300.443 546.562 303.381C539.44 311.216 529.49 310.795 519.562 311.381C514.716 311.553 509.869 311.665 505.02 311.769C476.225 311.359 476.225 311.359 450.562 322.381C447.676 325.719 447.02 328.667 447.219 333.088C450.858 357.366 475.226 377.228 491.77 393.719C493.761 395.705 495.747 397.696 497.732 399.687C503.273 405.23 508.786 410.734 514.762 415.812C518.397 418.979 521.778 422.412 525.188 425.818C525.912 426.53 526.636 427.243 527.383 427.976C540.203 440.762 540.203 440.762 540.562 449.381C538.07 450.321 536.262 450.626 533.717 449.732C531.559 448.684 529.467 447.557 527.375 446.381C526.619 445.967 525.863 445.554 525.084 445.128C519.297 441.912 513.837 438.386 508.562 434.381C507.291 433.427 506.019 432.474 504.746 431.521C502.132 429.561 499.521 427.596 496.914 425.627C484.316 416.123 471.58 406.801 458.609 397.81C456.594 396.402 454.609 394.957 452.625 393.506C449.719 391.277 449.719 391.277 446.562 390.381C446.562 389.721 446.562 389.061 446.562 388.381C445.906 388.151 445.25 387.922 444.574 387.685C440.615 385.97 437.055 383.747 433.375 381.506C427.902 378.223 422.579 375.278 416.555 373.107C414.562 372.381 414.562 372.381 411.5 370.818C401.382 365.867 389.623 363.386 378.516 366.135C368.73 369.507 364.141 374.188 359.562 383.381C350.181 403.743 350.178 428.861 349.333 450.964C349.03 458.279 348.387 465.401 347.125 472.619C347.002 473.324 346.879 474.03 346.752 474.757C345.602 480.902 344.033 485.746 339.688 490.381C336.525 491.869 335.031 492.129 331.562 491.381C323.027 484.382 320.18 473.789 317.312 463.568C317.017 462.54 316.721 461.512 316.416 460.452C314.774 454.731 313.181 448.998 311.613 443.256C303.232 409.869 303.232 409.869 280.699 385.287C271.846 381.328 261.907 382.898 253.035 385.943C229.005 395.89 210.491 415.255 192.431 433.382C190.671 435.147 188.906 436.907 187.141 438.666C182.018 443.785 176.989 448.911 172.285 454.422C140.687 490.347 140.687 490.347 125.445 492.709C122.249 492.873 119.952 492.59 117.125 491.068C114.846 488.607 114.577 486.563 114.316 483.263C114.618 478.511 115.846 474.695 117.5 470.256C117.838 469.332 118.177 468.408 118.526 467.456C122.208 457.758 126.618 448.402 131 439.006C149.239 403.737 149.239 403.737 150.719 365.596C148.057 359.489 144.753 355.885 138.562 353.381C113.76 345.099 83.3027 357.532 59.5625 364.381C58.279 364.751 56.9955 365.121 55.7119 365.491C55.0739 365.674 54.4359 365.858 53.7785 366.048C51.8699 366.598 49.961 367.147 48.052 367.696C45.6741 368.381 43.2976 369.071 40.9226 369.767C31.7388 372.428 22.8551 374.737 13.25 374.756C12.5739 374.78 11.8978 374.805 11.2012 374.83C7.6266 374.851 5.67037 374.448 2.61719 372.537C0.5625 370.381 0.5625 370.381 0 367.506C2.14393 355.595 16.9359 348.339 26.1499 341.896C46.443 327.811 46.443 327.811 62.5625 309.381C63.2225 309.381 63.8825 309.381 64.5625 309.381C64.6656 308.844 64.7688 308.308 64.875 307.756C65.5625 305.381 65.5625 305.381 67.0703 302.74C70.2489 295.584 69.7684 286.387 67.5312 278.955C64.1352 271.682 59.1735 266.039 53.5625 260.381C52.8664 259.647 52.1703 258.914 51.4531 258.158C48.4748 255.07 45.5681 252.273 42 249.881C34.5767 244.819 27.409 235.92 24.5625 227.381C24.4347 224.707 24.5186 222.06 24.5625 219.381C25.2225 219.381 25.8825 219.381 26.5625 219.381C26.7481 218.494 26.9338 217.607 27.125 216.693C28.9866 212.403 31.4845 210.42 35.5625 208.381C42.9052 205.816 50.4389 204.285 58.2222 204.207C59.3113 204.194 60.4003 204.18 61.5224 204.166C63.2709 204.151 63.2709 204.151 65.0547 204.135C67.5599 204.102 70.0651 204.068 72.5703 204.035C76.4909 203.988 80.4114 203.943 84.332 203.904C115.729 205.203 115.729 205.203 143.227 192.99C147.78 187.504 148.215 181.935 148.039 174.982C144.677 149.573 120.751 126.227 104.047 108.111C102.08 105.95 100.153 103.767 98.2383 101.56C94.5927 97.3818 90.8151 93.3418 87 89.3182C85.5871 87.8209 84.1743 86.3235 82.7617 84.826C80.7268 82.6713 78.6915 80.517 76.6548 78.3641C43.6706 43.4625 43.6706 43.4625 42.5625 30.3807C44.7931 28.3217 46.1643 27.4313 49.207 27.0447C53.6243 27.487 56.7581 29.1688 60.625 31.2557C62.0108 31.984 63.3975 32.7106 64.7852 33.4354C65.4324 33.7754 66.0797 34.1154 66.7466 34.4656C68.9663 35.5842 71.2324 36.5177 73.5625 37.3807C73.5625 38.0407 73.5625 38.7007 73.5625 39.3807C74.2534 39.6192 74.9444 39.8576 75.6562 40.1033C79.0987 41.6163 82.0241 43.6363 85.0625 45.8182C89.7065 49.1207 94.3917 52.1747 99.375 54.9432C100.097 55.4176 100.819 55.8919 101.562 56.3807C101.562 57.0407 101.562 57.7007 101.562 58.3807C102.233 58.5985 102.903 58.8164 103.594 59.0408C107.503 60.8054 110.645 63.2489 114.062 65.8182C132.671 79.5092 152.229 92.3996 172.562 103.381C173.251 103.752 173.939 104.124 174.647 104.507C189.244 112.292 204.997 119.79 221.812 119.756C222.642 119.754 223.472 119.752 224.327 119.751C235.51 119.529 245.017 116.21 252.938 108.131C265.952 92.5014 270.225 70.6679 273.974 51.2484C276.009 40.8412 278.559 31.8204 283.562 22.3807C284.223 22.3807 284.883 22.3807 285.562 22.3807C285.892 21.3907 286.223 20.4007 286.562 19.3807C289.234 17.8965 291.065 17.3685 294.125 17.4432C297.609 18.7833 298.653 20.1549 300.562 23.3807C302.674 30.7692 302.995 38.3786 303.438 46.0057C304.525 66.8094 304.525 66.8094 314.562 84.3807C319.764 87.9716 323.598 89.1019 329.875 89.0057C331.049 88.9899 331.049 88.9899 332.247 88.9737C359.844 87.8778 387.809 67.18 409.078 51.2283C412.497 48.6855 416.011 46.2869 419.522 43.8734C422.941 41.5172 426.329 39.1235 429.698 36.6964C485.711 -3.65144 485.711 -3.65143 501.625 3.81819Z" fill="#F5F5F5"/>
</svg>
