<svg width="612" height="535" viewBox="0 0 612 535" fill="none" xmlns="http://www.w3.org/2000/svg">
<path d="M343.152 0.265984C347.799 2.06399 351.183 4.53182 353.464 9.01598C358.21 22.3223 358.677 36.671 359.152 50.641C359.952 74.1128 361.515 98.8531 376.152 118.266C377.142 118.926 378.132 119.586 379.152 120.266C379.152 120.926 379.152 121.586 379.152 122.266C379.688 122.533 380.224 122.8 380.777 123.075C382.531 123.955 384.28 124.844 386.027 125.739C387.058 126.263 388.089 126.788 389.152 127.328C390.699 128.119 390.699 128.119 392.277 128.926C406.936 135.758 427.556 131.554 442.152 126.266C448.6 123.852 454.885 121.115 461.152 118.266C461.855 117.953 462.558 117.64 463.282 117.317C473.956 112.559 484.165 107.056 494.398 101.422C546.551 72.7438 546.551 72.7438 565.152 75.266C571.453 77.1006 575.409 81.0076 579.152 86.266C581.428 90.8184 580.69 96.2959 579.386 101.067C574.254 114.422 564.844 125.761 556.403 137.147C530.243 172.468 509.215 210.127 515.339 255.516C517.914 272.762 522.839 288.457 530.152 304.266C530.621 305.288 530.621 305.288 531.1 306.33C541.317 328.289 555.105 348.189 569.456 367.602C572.55 371.793 575.574 376.032 578.591 380.278C581.096 383.802 583.643 387.29 586.214 390.766C592.823 399.836 598.954 409.315 604.152 419.266C604.509 419.94 604.866 420.614 605.234 421.309C606.25 423.277 607.21 425.262 608.152 427.266C608.453 427.867 608.755 428.467 609.066 429.086C612.126 435.922 612.366 443.762 610.425 450.961C608.555 455.569 606.48 458.602 602.152 461.266C592.889 464.354 583.295 461.228 574.824 457.143C570.686 455.038 566.604 452.839 562.534 450.606C558.819 448.578 555.072 446.86 551.152 445.266C551.152 444.606 551.152 443.946 551.152 443.266C550.314 443.011 549.476 442.756 548.613 442.493C544.82 441.148 541.349 439.476 537.777 437.641C537.136 437.316 536.495 436.991 535.835 436.657C534.272 435.863 532.712 435.065 531.152 434.266C531.152 433.606 531.152 432.946 531.152 432.266C530.309 432.004 529.466 431.743 528.597 431.473C524.948 430.195 521.505 428.627 518.027 426.953C496.252 416.659 472.341 407.083 447.964 413.828C438.8 417.2 429.636 423.298 425.152 432.266C424.492 432.266 423.832 432.266 423.152 432.266C422.872 433.132 422.592 433.999 422.304 434.891C420.869 439.093 419.171 443.167 417.468 447.266C413.743 457.587 412.456 468.924 410.652 479.703C410.212 482.254 409.772 484.805 409.331 487.356C408.663 491.24 408.012 495.125 407.409 499.02C405.429 510.746 400.915 521.635 391.019 528.813C390.361 529.21 389.704 529.607 389.027 530.016C388.364 530.423 387.702 530.831 387.019 531.25C379.199 535.504 365.518 534.582 357.097 532.371C354.377 531.448 351.757 530.474 349.152 529.266C349.152 528.606 349.152 527.946 349.152 527.266C348.285 526.998 347.419 526.73 346.527 526.453C343.234 525.295 340.24 523.884 337.152 522.266C337.152 521.606 337.152 520.946 337.152 520.266C336.615 520.018 336.079 519.771 335.527 519.516C329.962 516.587 326.13 513.296 322.128 508.528C319.954 506.04 317.643 503.758 315.277 501.453C310.948 497.177 307.097 492.668 303.3 487.918C301.314 485.467 299.265 483.109 297.152 480.766C294.256 477.55 291.495 474.258 288.777 470.891C282.059 462.616 275.004 453.948 266.652 447.266C263.304 444.588 260.378 441.571 257.445 438.45C249.952 430.652 241.378 424.74 231.952 419.493C231.358 419.088 230.764 418.683 230.152 418.266C230.152 417.606 230.152 416.946 230.152 416.266C229.421 415.982 228.69 415.697 227.936 415.404C225.428 414.379 223.022 413.264 220.597 412.059C169.858 387.153 122.15 394.055 69.0423 406.431C27.1146 416.19 27.1146 416.19 11.8001 406.828C5.31962 401.78 2.68756 394.874 0.15166 387.266C-1.40773 362.571 9.25319 344.016 23.1517 324.266C23.8117 323.276 24.4717 322.286 25.1517 321.266C25.8117 321.266 26.4717 321.266 27.1517 321.266C27.4817 319.946 27.8117 318.626 28.1517 317.266C28.8117 317.266 29.4717 317.266 30.1517 317.266C30.394 316.725 30.6363 316.183 30.886 315.625C32.462 312.688 34.3816 310.168 36.4017 307.516C37.2143 306.447 38.0268 305.378 38.8392 304.309C39.6023 303.305 40.3654 302.301 41.1517 301.266C42.6609 299.208 44.1694 297.149 45.6673 295.082C47.1517 293.266 47.1517 293.266 49.5462 290.875C52.0745 288.343 54.3348 285.73 56.5892 282.953C57.3626 282.002 58.136 281.051 58.9329 280.071C61.3713 276.988 63.6993 273.844 65.9603 270.629C66.3534 270.179 66.7466 269.729 67.1517 269.266C67.8117 269.266 68.4717 269.266 69.1517 269.266C69.5229 268.187 69.5229 268.187 69.9017 267.086C71.2829 263.97 72.9753 261.757 75.1517 259.141C77.289 256.556 79.2892 254.06 81.1517 251.266C81.8117 251.266 82.4717 251.266 83.1517 251.266C83.5229 250.493 83.5229 250.493 83.9017 249.703C85.5475 246.494 87.3493 243.39 89.1517 240.266C89.8117 240.266 90.4717 240.266 91.1517 240.266C91.4082 239.547 91.6647 238.827 91.929 238.086C93.2228 235.102 94.7948 232.762 96.7142 230.141C98.6952 227.431 100.086 225.462 101.152 222.266C101.812 222.266 102.472 222.266 103.152 222.266C103.358 221.482 103.564 220.698 103.777 219.891C104.903 216.922 105.978 214.837 107.652 212.203C129.819 175.999 137.902 134.591 132.652 92.7035C131.513 83.5256 130.773 74.4551 130.652 65.2035C130.621 64.1515 130.591 63.0996 130.56 62.0157C130.554 52.7391 133.656 45.0121 140.152 38.266C142.773 36.3168 142.773 36.3168 145.589 34.5785C146.516 33.9971 147.443 33.4157 148.398 32.8168C156.777 28.0985 166.028 28.0803 175.339 29.8832C187.075 33.4868 198.196 40.1887 208.152 47.266C209.901 48.4957 211.651 49.7249 213.402 50.9535C214.191 51.5142 214.979 52.075 215.792 52.6527C218.194 54.2948 220.65 55.7812 223.152 57.266C224.066 57.8474 224.98 58.4287 225.921 59.0277C244.579 70.8353 262.051 79.6143 284.695 75.6449C292.908 73.2543 300.366 68.4446 305.152 61.266C305.812 61.266 306.472 61.266 307.152 61.266C307.296 60.6472 307.44 60.0285 307.589 59.391C308.152 57.266 308.152 57.266 309.152 55.266C309.812 55.266 310.472 55.266 311.152 55.266C311.435 54.383 311.719 53.5 312.011 52.5902C313.015 49.6655 314.15 46.9027 315.402 44.0785C318.021 37.8893 320.005 31.5739 321.977 25.1586C323.758 19.4034 325.737 13.7907 328.152 8.26598C328.812 8.26598 329.472 8.26598 330.152 8.26598C330.523 7.1213 330.523 7.1213 330.902 5.95348C333.552 0.255312 337.095 -0.541517 343.152 0.265984Z" fill="#F5F5F5"/>
</svg>
