<svg width="499" height="572" viewBox="0 0 499 572" fill="none" xmlns="http://www.w3.org/2000/svg">
<path d="M245 0C245.99 0.33 246.98 0.66 248 1C248.964 3.54474 249.679 5.92757 250.328 8.55859C250.539 9.38919 250.75 10.2198 250.968 11.0755C253.911 23.1475 255.884 35.4329 257.991 47.6721C259.278 55.1339 260.604 62.5888 261.934 70.043C262.065 70.7794 262.196 71.5159 262.332 72.2747C268.032 116.184 268.032 116.184 285 156C297.166 155.471 306.391 145.711 315 138C315.787 137.302 316.575 136.603 317.386 135.884C327.609 126.679 337.237 116.873 346.938 107.125C348.719 105.338 350.501 103.552 352.283 101.766C356.237 97.8015 360.189 93.8349 364.14 89.867C365.674 88.3272 367.211 86.7899 368.749 85.2534C371.049 82.9506 373.334 80.6331 375.617 78.3125C377.37 76.5415 379.122 74.7707 380.875 73C382.184 71.6658 382.184 71.6658 383.52 70.3047C388.083 65.7073 392.464 61.3981 398 58C398.99 58 399.98 58 401 58C399.686 68.5131 394.285 78.0264 389.852 87.5078C389.372 88.5416 388.892 89.5755 388.398 90.6406C387.744 92.041 387.744 92.041 387.076 93.4697C386.146 95.6554 385.487 97.6825 385 100C384.34 100 383.68 100 383 100C382.918 100.66 382.835 101.32 382.75 102C381.914 105.342 380.563 108.016 378.938 111.035C377.994 113.012 377.457 114.864 377 117C376.34 117 375.68 117 375 117C374.905 117.857 374.809 118.714 374.711 119.598C373.917 123.397 372.541 126.07 370.625 129.438C368.492 133.209 366.544 136.934 364.88 140.935C363.783 143.508 362.614 146.043 361.441 148.582C360.739 150.105 360.739 150.105 360.021 151.658C359.054 153.75 358.085 155.841 357.115 157.932C354.216 164.22 351.492 170.539 349 177C348.585 178.072 348.585 178.072 348.161 179.165C347.391 181.169 346.631 183.177 345.875 185.188C345.624 185.847 345.372 186.506 345.113 187.186C342.863 193.165 340.902 199.03 340.375 205.438C340.3 206.302 340.225 207.167 340.148 208.059C340.099 208.699 340.05 209.34 340 210C340.66 210 341.32 210 342 210C342 210.66 342 211.32 342 212C363.973 213.072 384.553 210.23 406.142 206.495C414.572 205.036 423.007 203.599 431.442 202.17C434.553 201.637 437.662 201.09 440.771 200.541C450.607 198.834 459.983 197.379 470 198C470 198.99 470 199.98 470 201C467.811 202.874 465.66 204.534 463.312 206.188C462.632 206.676 461.952 207.164 461.25 207.667C455.015 212.093 448.57 216.089 442 220C432.012 226.088 422.114 232.313 412.239 238.582C410.265 239.832 408.286 241.074 406.305 242.312C384.462 255.252 384.462 255.252 367 273C366.165 276.328 366.165 276.328 367 280C376.892 292.455 396.043 299.56 409.812 306.688C410.981 307.293 412.149 307.898 413.353 308.521C420.921 312.434 428.509 316.306 436.125 320.125C437.428 320.78 437.428 320.78 438.757 321.448C443.419 323.773 448.117 325.96 452.887 328.053C456.103 329.495 459.236 331.087 462.375 332.688C471.501 337.299 480.745 341.654 490 346C490 346.66 490 347.32 490 348C490.928 348.289 491.856 348.578 492.812 348.875C496 350 496 350 499 352C499 352.99 499 353.98 499 355C483.527 355.47 468.673 354.418 453.358 352.236C447.45 351.397 441.535 350.616 435.621 349.824C434.45 349.666 433.279 349.508 432.073 349.345C390.818 341.559 390.818 341.559 350 345C348.19 348.62 349.128 352.212 350 356C354.91 370.293 363.233 383.132 371 396C371.404 396.672 371.808 397.344 372.224 398.036C376.765 405.572 381.512 412.981 386.216 420.416C392.213 429.901 398.135 439.432 404 449C404.402 449.652 404.804 450.304 405.218 450.976C408.627 456.528 411.686 461.576 413 468C403.55 467.598 397.014 461.157 389.945 455.418C387.955 453.816 387.955 453.816 385 453C385 452.34 385 451.68 385 451C382.668 449.794 380.504 448.835 378 448C377.397 447.394 376.793 446.788 376.172 446.164C372.955 442.959 369.143 440.91 365.266 438.586C364.518 438.063 363.77 437.539 363 437C363 436.34 363 435.68 363 435C362.451 434.743 361.902 434.487 361.336 434.223C358.623 432.803 356.16 431.156 353.625 429.438C348.943 426.291 344.24 423.183 339.5 420.125C338.913 419.744 338.326 419.363 337.721 418.97C334.883 417.144 332.062 415.426 329 414C329 413.34 329 412.68 329 412C328.154 411.732 327.309 411.464 326.438 411.188C323 410 323 410 319.5 408.375C315.971 406.989 313.741 406.478 310 407C305.827 413.259 306.816 421.469 306.828 428.75C306.83 429.892 306.831 431.034 306.833 432.21C306.919 444.848 307.793 457.403 308.75 470C308.93 472.47 309.109 474.941 309.288 477.411C310.181 489.65 311.143 501.883 312.156 514.113C312.295 515.798 312.295 515.798 312.436 517.516C312.872 522.797 313.316 528.078 313.78 533.357C314.579 542.677 315.155 551.935 315.172 561.293C315.174 562.143 315.175 562.993 315.177 563.869C315.132 569.736 315.132 569.736 314 572C310.808 570.966 309.962 569.939 308.167 567.032C307.529 565.751 306.907 564.462 306.297 563.168C305.955 562.463 305.613 561.757 305.261 561.031C300.919 551.939 297.094 542.622 293.25 533.312C292.453 531.396 291.656 529.481 290.858 527.565C287.443 519.357 284.051 511.141 280.691 502.91C266.658 467.854 266.658 467.854 248.66 434.754C247 432 247 432 247 430C246.01 429.67 245.02 429.34 244 429C243.01 427.515 243.01 427.515 242 426C237.324 426.095 234.84 426.711 231.438 430C226.27 435.655 222.204 442.058 219 449C218.34 449 217.68 449 217 449C216.764 449.657 216.528 450.315 216.285 450.992C214.624 454.881 212.548 458.465 210.438 462.125C209.621 463.543 208.807 464.962 207.996 466.383C207.637 467.006 207.278 467.628 206.908 468.27C205.858 470.158 205.858 470.158 205 473C204.34 473 203.68 473 203 473C202.792 473.762 202.585 474.524 202.371 475.309C200.439 480.512 197.746 485.213 195.062 490.062C193.888 492.208 192.715 494.354 191.543 496.5C190.952 497.582 190.361 498.663 189.751 499.777C187.085 504.684 184.471 509.618 181.875 514.562C181.202 515.836 181.202 515.836 180.516 517.135C178.132 521.686 175.952 526.247 174 531C173.34 531 172.68 531 172 531C171.652 532.212 171.652 532.212 171.297 533.449C169.693 537.841 167.547 541.75 165.25 545.812C164.803 546.608 164.355 547.404 163.894 548.224C155.179 563.607 155.179 563.607 151 565C150.068 552.26 152.687 540.607 155.342 528.205C156.357 523.262 157.177 518.29 158 513.312C159.234 505.98 160.675 498.739 162.375 491.5C165.673 477.418 168.362 463.218 171 449C171.134 448.277 171.268 447.553 171.407 446.808C175.67 423.775 179.469 401.502 179 378C151.597 378.183 123.43 403.422 101.351 417.971C81.7122 430.9 81.7122 430.9 72 437.125C70.9275 437.824 70.9275 437.824 69.8333 438.536C65.3726 441.371 61.0047 443.291 56 445C56.4405 440.154 58.7451 436.519 62 433C62.66 433 63.32 433 64 433C64.0928 432.165 64.0928 432.165 64.1875 431.312C65.3373 428.04 67.524 426.413 70 424C71.7006 422.2 73.388 420.387 75.0625 418.562C75.8991 417.656 76.7357 416.75 77.5977 415.816C79.9949 413.006 81.9792 410.087 84 407C85.643 405.31 87.3147 403.648 89 402C95.6907 394.8 102.055 387.314 108.43 379.836C110.01 377.989 111.597 376.148 113.188 374.309C118.635 368.003 124.038 361.7 129 355C129.395 354.469 129.789 353.938 130.196 353.39C139.793 341.828 139.793 341.828 143 328C137.282 325.63 132.194 324.361 126.042 323.82C125.182 323.74 124.321 323.66 123.435 323.578C113.516 322.747 103.6 322.773 93.6538 322.85C90.2351 322.876 86.8166 322.888 83.3979 322.898C76.161 322.921 68.9243 322.959 61.6875 323C53.2465 323.047 44.8056 323.088 36.3645 323.112C33.0059 323.125 29.6475 323.15 26.289 323.175C24.2313 323.183 22.1736 323.189 20.116 323.195C19.1907 323.206 18.2655 323.216 17.3122 323.227C12.1415 323.227 7.89654 322.687 3 321C3.49609 319.238 3.49609 319.238 5 317C7.68491 315.531 10.2409 314.341 13.0625 313.188C13.9552 312.813 14.8479 312.438 15.7676 312.052C26.612 307.598 37.6728 303.703 48.6936 299.712C86.1953 287.612 86.1953 287.612 119 267C120.445 263.893 120.42 262.174 119.27 258.957C114.716 250.159 106.862 243.515 99.8003 236.74C98.2615 235.253 96.7542 233.733 95.2539 232.207C93.2537 230.248 91.2775 228.616 89 227C85.6874 224.573 82.8714 221.945 80 219C78.3088 217.501 76.5885 216.041 74.8633 214.582C73.0149 213.013 71.1934 211.417 69.375 209.812C60.7896 202.302 52.1656 194.92 42.9622 188.173C41.6065 187.16 40.2979 186.085 39 185C39 184.34 39 183.68 39 183C38.3812 182.691 37.7625 182.381 37.125 182.062C35.75 181.375 34.375 180.688 33 180C33 179.34 33 178.68 33 178C32.447 177.767 31.894 177.533 31.3242 177.293C28.3954 175.664 26.2513 173.611 23.8125 171.312C19.577 167.379 15.2524 163.778 10.582 160.375C10.06 159.921 9.53789 159.467 9 159C9 158.34 9 157.68 9 157C8.01 156.67 7.02 156.34 6 156C4.39453 154.477 4.39453 154.477 2.8125 152.625C2.2827 152.019 1.75289 151.413 1.20703 150.789C0 149 0 149 0 146C8.26566 146.412 15.7531 148.921 23.5461 151.5C25.7938 152.244 28.0458 152.973 30.2988 153.699C37.8048 156.142 45.1543 158.746 52.3933 161.913C55.2232 163.093 58.082 164.061 61 165C65.0339 166.303 68.918 167.764 72.8125 169.438C78.5974 171.911 84.4693 173.877 90.457 175.789C94.0635 177.022 97.5075 178.477 101 180C111.48 184.015 122.1 187.428 132.915 190.419C134.387 190.829 135.858 191.246 137.327 191.667C151.66 196.625 151.66 196.625 166 195C173.046 167.739 146.731 123.133 136.52 97.7637C132.067 86.6973 127.673 75.6087 123.327 64.5C122.615 62.6822 121.902 60.8649 121.188 59.0481C120.19 56.5073 119.196 53.9648 118.203 51.4219C117.908 50.6723 117.613 49.9228 117.309 49.1506C112.296 36.2588 112.296 36.2588 114 32C115.709 33.6234 117.374 35.2932 119 37C119 37.66 119 38.32 119 39C119.66 39 120.32 39 121 39C122.484 40.9289 123.845 42.8503 125.188 44.875C126.006 46.0848 126.825 47.2944 127.645 48.5039C128.048 49.1035 128.451 49.7031 128.866 50.3208C130.341 52.5047 131.855 54.6596 133.375 56.8125C141.114 67.8525 148.69 79.0063 156.299 90.1357C160.1 95.6919 163.92 101.234 167.762 106.762C169.4 109.132 171.027 111.509 172.645 113.895C178.106 121.934 183.741 129.748 189.744 137.393C191.064 139.082 192.37 140.781 193.672 142.484C194.114 143.062 194.556 143.64 195.011 144.236C195.441 144.797 195.87 145.359 196.312 145.938C202.418 154.094 202.418 154.094 209.562 161.312C210.121 161.804 210.679 162.295 211.254 162.801C213.162 164.111 214.739 164.579 217 165C230.336 147.985 229.728 114.211 231.877 93.4871C232.625 86.3283 233.466 79.194 234.438 72.0625C235.394 65.0443 236.23 58.0202 236.973 50.9766C237.058 50.1741 237.142 49.3715 237.23 48.5447C237.65 44.5535 238.063 40.5616 238.467 36.5686C239.272 28.7351 240.238 20.95 241.5 13.1758C241.619 12.4294 241.737 11.6831 241.859 10.9141C242.512 7.05117 243.374 3.56961 245 0Z" fill="#F5F5F5"/>
</svg>
